<?xml version="1.0" encoding="UTF-8" standalone="no"?>
<!-- Created with Inkscape (http://www.inkscape.org/) -->

<svg
   xmlns:dc="http://purl.org/dc/elements/1.1/"
   xmlns:cc="http://creativecommons.org/ns#"
   xmlns:rdf="http://www.w3.org/1999/02/22-rdf-syntax-ns#"
   xmlns:svg="http://www.w3.org/2000/svg"
   xmlns="http://www.w3.org/2000/svg"
   xmlns:sodipodi="http://sodipodi.sourceforge.net/DTD/sodipodi-0.dtd"
   xmlns:inkscape="http://www.inkscape.org/namespaces/inkscape"
   version="1.1"
   id="svg1742"
   xml:space="preserve"
   width="1056"
   height="816"
   viewBox="0 0 1056 816"
   sodipodi:docname="bursting-tiles-3-freesvg.org.svg"
   inkscape:version="0.92.4 (5da689c313, 2019-01-14)"><metadata
     id="metadata1748"><rdf:RDF><cc:Work
         rdf:about=""><dc:format>image/svg+xml</dc:format><dc:type
           rdf:resource="http://purl.org/dc/dcmitype/StillImage" /><dc:title></dc:title></cc:Work></rdf:RDF></metadata><defs
     id="defs1746"><clipPath
       clipPathUnits="userSpaceOnUse"
       id="clipPath1758"><path
         d="M 0,612 H 792 V 0 H 0 Z"
         id="path1756"
         inkscape:connector-curvature="0" /></clipPath><linearGradient
       x1="0"
       y1="0"
       x2="1"
       y2="0"
       gradientUnits="userSpaceOnUse"
       gradientTransform="matrix(791.26221,0,0,-791.26221,0.737793,306.01514)"
       spreadMethod="pad"
       id="linearGradient1778"><stop
         style="stop-opacity:1;stop-color:#ffffff"
         offset="0"
         id="stop1772" /><stop
         style="stop-opacity:1;stop-color:#00adef"
         offset="0.52"
         id="stop1774" /><stop
         style="stop-opacity:1;stop-color:#2c3364"
         offset="1"
         id="stop1776" /></linearGradient></defs><sodipodi:namedview
     pagecolor="#ffffff"
     bordercolor="#666666"
     borderopacity="1"
     objecttolerance="10"
     gridtolerance="10"
     guidetolerance="10"
     inkscape:pageopacity="0"
     inkscape:pageshadow="2"
     inkscape:window-width="1920"
     inkscape:window-height="1018"
     id="namedview1744"
     showgrid="false"
     inkscape:zoom="0.76732537"
     inkscape:cx="605.08475"
     inkscape:cy="401.08475"
     inkscape:window-x="-8"
     inkscape:window-y="-8"
     inkscape:window-maximized="1"
     inkscape:current-layer="g1750" /><g
     id="g1750"
     inkscape:groupmode="layer"
     inkscape:label="background-68-publicdomainvectors.org [Converted]"
     transform="matrix(1.3333333,0,0,-1.3333333,0,816)"><g
       id="g1752"><g
         id="g1754"
         clip-path="url(#clipPath1758)"><g
           id="g1760"><g
             id="g1762"><g
               id="g1768"><g
                 id="g1770"><path
                   d="M 792,0.03 H 0.738 V 612 H 792 Z"
                   style="fill:url(#linearGradient1778);stroke:none"
                   id="path1780"
                   inkscape:connector-curvature="0" /></g></g></g></g><path
           d="m 0,352.999 h 17.635 v 15.113 H 0 Z m 0,-18.134 h 17.635 v 15.112 H 0 Z m 0,-18.134 h 17.635 v 15.111 H 0 Z m 0,-18.134 h 17.635 v 15.111 H 0 Z m 0,-18.134 h 17.635 v 15.111 H 0 Z M 0,262.328 H 17.635 V 277.44 H 0 Z m 21.162,90.671 h 17.635 v 15.113 H 21.162 Z m 0,-18.134 h 17.635 v 15.112 H 21.162 Z m 0,-18.134 h 17.635 v 15.111 H 21.162 Z m 0,-18.134 h 17.635 v 15.111 H 21.162 Z m 0,-18.134 h 17.635 v 15.111 H 21.162 Z m 0,-18.135 H 38.797 V 277.44 H 21.162 Z m 21.163,105.784 v -15.113 h 17.634 v 15.113 z m 0,-18.134 v -15.113 h 17.634 v 15.113 z m 0,-18.135 v -15.112 h 17.634 v 15.112 z m 0,-18.135 v -15.111 h 17.634 v 15.111 z m 0,-18.134 v -15.111 h 17.634 v 15.111 z m 0,-18.134 v -15.112 h 17.634 v 15.112 z m 21.162,75.559 h 17.635 v 15.113 H 63.487 Z m 0,-18.134 h 17.635 v 15.112 H 63.487 Z m 0,-18.134 h 17.635 v 15.111 H 63.487 Z m 0,-18.134 h 17.635 v 15.111 H 63.487 Z m 0,-18.134 h 17.635 v 15.111 H 63.487 Z m 0,-18.135 H 81.122 V 277.44 H 63.487 Z m 21.162,90.671 h 17.635 v 15.113 H 84.649 Z m 706.878,15.113 h -17.635 v -15.113 h 17.635 z M 84.649,334.865 h 17.635 v 15.112 H 84.649 Z m 706.878,15.113 h -17.635 v -15.112 h 17.635 z M 84.649,316.731 h 17.635 v 15.111 H 84.649 Z m 706.878,15.112 h -17.635 v -15.111 h 17.635 z M 84.649,298.597 h 17.635 v 15.111 H 84.649 Z m 706.878,15.111 h -17.635 v -15.111 h 17.635 z M 84.649,280.463 h 17.635 v 15.111 H 84.649 Z m 706.878,15.111 h -17.635 v -15.111 h 17.635 z M 84.649,262.328 h 17.635 V 277.44 H 84.649 Z m 706.878,15.112 h -17.635 v -15.112 h 17.635 z m -685.715,75.559 h 17.635 v 15.113 h -17.635 z m 664.552,15.113 h -17.636 v -15.113 h 17.636 z M 105.812,334.865 h 17.635 v 15.112 h -17.635 z m 664.552,15.113 h -17.636 v -15.112 h 17.636 z M 105.812,316.731 h 17.635 v 15.111 h -17.635 z m 664.552,15.112 h -17.636 v -15.111 h 17.636 z M 105.812,298.597 h 17.635 v 15.111 h -17.635 z m 664.552,15.111 h -17.636 v -15.111 h 17.636 z M 105.812,280.463 h 17.635 v 15.111 h -17.635 z m 664.552,15.111 h -17.636 v -15.111 h 17.636 z M 105.812,262.328 h 17.635 v 15.112 h -17.635 z m 664.552,15.112 h -17.636 v -15.112 h 17.636 z m -643.391,90.672 0.001,-15.113 h 17.634 v 15.113 z m 622.23,0 h -17.636 v -15.113 h 17.635 z m -622.23,-18.134 0.001,-15.113 h 17.634 v 15.113 z m 622.23,0 h -17.636 v -15.113 h 17.635 z m -622.23,-18.135 0.001,-15.112 h 17.634 v 15.112 z m 622.23,0 h -17.636 v -15.112 h 17.635 z m -622.23,-18.135 0.001,-15.111 h 17.634 v 15.111 z m 622.23,0 h -17.636 v -15.111 h 17.635 z m -622.23,-18.134 0.001,-15.111 h 17.634 v 15.111 z m 622.23,0 h -17.636 v -15.111 h 17.635 z m -622.23,-18.134 0.001,-15.112 h 17.634 v 15.112 z m 622.23,0 h -17.636 v -15.112 h 17.635 z m -601.067,75.559 h 17.635 v 15.113 h -17.635 z m 579.903,15.113 h -17.635 v -15.113 h 17.635 z M 148.136,334.865 h 17.635 v 15.112 h -17.635 z m 579.903,15.113 h -17.635 v -15.112 h 17.635 z M 148.136,316.731 h 17.635 v 15.111 h -17.635 z m 579.903,15.112 h -17.635 v -15.111 h 17.635 z M 148.136,298.597 h 17.635 v 15.111 h -17.635 z m 579.903,15.111 h -17.635 v -15.111 h 17.635 z M 148.136,280.463 h 17.635 v 15.111 h -17.635 z m 579.903,15.111 h -17.635 v -15.111 h 17.635 z M 148.136,262.328 h 17.635 v 15.112 h -17.635 z m 579.903,15.112 h -17.635 v -15.112 h 17.635 z m -558.742,75.559 h 17.635 v 15.113 h -17.635 z m 537.582,15.113 h -17.635 v -15.113 h 17.635 z M 169.297,334.865 h 17.635 v 15.112 h -17.635 z m 537.582,15.113 h -17.635 v -15.112 h 17.635 z M 169.297,316.731 h 17.635 v 15.111 h -17.635 z m 537.582,15.112 h -17.635 v -15.111 h 17.635 z M 169.297,298.597 h 17.635 v 15.111 h -17.635 z m 537.582,15.111 h -17.635 v -15.111 h 17.635 z M 169.297,280.463 h 17.635 v 15.111 h -17.635 z m 537.582,15.111 h -17.635 v -15.111 h 17.635 z M 169.297,262.328 h 17.635 v 15.112 h -17.635 z m 537.582,15.112 h -17.635 v -15.112 h 17.635 z M 190.46,353 h 17.635 v 15.112 H 190.46 Z m 495.256,15.112 H 668.08 V 353 h 17.636 z M 190.46,334.866 h 17.635 v 15.112 H 190.46 Z m 495.256,15.112 H 668.08 v -15.112 h 17.636 z m -495.256,-18.135 0.001,-15.112 h 17.634 v 15.112 z m 495.256,0 H 668.08 v -15.112 h 17.635 z M 190.46,298.596 h 17.635 v 15.111 H 190.46 Z m 495.256,15.111 H 668.08 v -15.111 h 17.636 z M 190.46,295.571 190.461,280.46 h 17.634 v 15.111 z m 495.256,0 H 668.08 V 280.46 h 17.635 z m -495.256,-18.134 0.001,-15.112 h 17.634 v 15.112 z m 495.256,0 H 668.08 v -15.112 h 17.635 z m -474.09,75.57 h 17.635 v 15.112 H 211.626 Z M 664.55,368.119 H 646.915 V 353.007 H 664.55 Z M 211.627,334.872 h 17.635 v 15.112 h -17.635 z m 452.922,15.111 h -17.635 v -15.112 h 17.635 z M 211.627,316.73 h 17.635 v 15.112 h -17.635 z m 452.922,15.112 H 646.914 V 316.73 h 17.635 z M 211.628,298.585 h 17.635 v 15.112 h -17.635 z m 452.92,15.112 h -17.636 v -15.112 h 17.636 z M 211.627,280.438 h 17.635 v 15.112 h -17.635 z m 452.922,15.113 h -17.635 v -15.112 h 17.635 z M 211.627,262.295 h 17.635 v 15.113 h -17.635 z m 452.922,15.113 h -17.635 v -15.113 h 17.635 z m -431.738,75.644 h 17.635 v 15.112 h -17.635 z m 410.554,15.112 h -17.636 v -15.112 h 17.636 z M 232.818,334.903 h 17.635 v 15.112 h -17.635 z m 410.539,15.112 h -17.635 v -15.112 h 17.635 z M 232.821,316.732 h 17.635 v 15.112 h -17.635 z m 410.534,15.112 h -17.636 v -15.112 h 17.636 z M 232.821,298.545 h 17.635 v 15.112 h -17.635 z m 410.534,15.112 h -17.636 v -15.112 h 17.636 z M 232.818,280.354 h 17.635 v 15.112 h -17.635 z m 410.539,15.112 h -17.635 v -15.112 h 17.635 z M 232.813,262.177 h 17.635 v 15.111 h -17.635 z m 410.549,15.111 h -17.636 v -15.111 h 17.636 z m -389.298,75.918 h 17.635 v 15.112 h -17.635 z m 368.047,15.112 h -17.635 v -15.112 h 17.635 z M 254.087,335.013 h 17.635 v 15.111 h -17.635 z m 368.001,15.112 h -17.635 v -15.111 h 17.635 z M 254.1,316.753 h 17.635 v 15.112 H 254.1 Z m 367.976,15.113 h -17.635 v -15.112 h 17.635 z M 254.098,298.448 h 17.635 v 15.112 h -17.635 z m 367.98,15.112 h -17.636 v -15.112 h 17.636 z M 254.086,280.132 h 17.635 v 15.112 H 254.086 Z M 622.09,295.244 H 604.454 V 280.132 H 622.09 Z M 254.065,261.851 H 271.7 v 15.112 h -17.635 z m 368.045,15.112 h -17.636 v -15.112 h 17.636 z m -346.632,76.641 h 17.635 v 15.112 h -17.635 z m 325.22,15.112 h -17.636 v -15.112 h 17.636 z m -325.16,-33.412 h 17.635 v 15.112 h -17.635 z m 325.1,15.112 h -17.636 v -15.112 h 17.636 z M 275.569,316.842 h 17.635 v 15.112 h -17.635 z m 325.038,15.112 h -17.636 v -15.112 h 17.636 z M 275.563,298.263 h 17.635 v 15.112 h -17.635 z m 325.049,15.112 h -17.636 v -15.112 h 17.636 z M 275.526,279.658 h 17.635 v 15.111 h -17.635 z m 325.123,15.112 h -17.635 v -15.111 h 17.635 z M 275.466,261.135 h 17.635 v 15.11 h -17.635 z m 325.243,15.11 h -17.635 v -15.11 h 17.635 z m -303.508,78.242 h 17.635 v 15.112 H 297.201 Z M 578.975,369.6 H 561.34 v -15.112 h 17.635 z M 297.341,335.973 h 17.636 v 15.112 h -17.636 z m 281.493,15.112 h -17.635 v -15.112 h 17.635 z M 297.405,317.097 h 17.635 v 15.111 h -17.635 z m 281.366,15.111 h -17.636 v -15.111 h 17.636 z M 297.383,297.955 h 17.636 v 15.11 h -17.636 z m 281.41,15.11 h -17.636 v -15.11 h 17.636 z M 297.286,278.748 h 17.634 v 15.111 H 297.286 Z M 578.89,293.859 H 561.256 V 278.748 H 578.89 Z M 297.138,259.718 h 17.635 v 15.112 h -17.635 z m 281.9,15.112 h -17.636 v -15.112 h 17.636 z M 319.47,356.266 h 17.635 v 15.112 H 319.47 Z m 237.236,15.111 H 539.07 v -15.112 h 17.636 z M 319.751,337.371 h 17.635 v 15.112 h -17.635 z m 236.673,15.112 h -17.635 v -15.112 h 17.635 z M 319.86,317.697 h 17.635 v 15.112 H 319.86 Z m 236.456,15.112 H 538.68 v -15.112 h 17.636 z M 319.778,297.446 h 17.635 v 15.112 h -17.635 z m 236.619,15.113 h -17.636 v -15.112 h 17.636 z M 319.542,277.057 h 17.635 v 15.112 h -17.635 z m 237.091,15.112 h -17.635 v -15.112 h 17.635 z M 319.219,257.052 h 17.635 v 15.111 h -17.635 z m 237.738,15.111 h -17.636 v -15.111 h 17.636 z m -214.335,87.471 h 17.634 v 15.112 h -17.634 z m 190.933,15.113 H 515.92 v -15.112 h 17.635 z M 343.133,340.095 h 17.634 v 15.112 h -17.634 z m 189.91,15.113 h -17.635 v -15.112 h 17.635 z M 343.256,318.912 h 17.635 v 15.112 H 343.256 Z M 532.92,334.024 H 515.284 V 318.912 H 532.92 Z M 342.982,296.493 h 17.636 v 15.112 h -17.636 z m 190.211,15.112 h -17.636 v -15.112 h 17.636 z M 342.436,273.826 h 17.634 v 15.112 H 342.436 Z M 533.74,288.938 H 516.105 V 273.826 H 533.74 Z M 341.785,252.045 h 17.635 v 15.113 h -17.635 z m 192.606,15.113 h -17.635 v -15.113 h 17.635 z m -167.264,98.576 h 17.635 v 15.111 h -17.635 z m 141.922,15.112 h -17.635 v -15.111 h 17.635 z M 367.954,345.088 h 17.635 V 360.2 H 367.954 Z M 508.223,360.2 h -17.636 v -15.112 h 17.636 z M 367.909,320.929 h 17.635 v 15.112 h -17.635 z m 140.359,15.112 h -17.636 v -15.112 h 17.636 z M 367.072,294.213 h 17.634 v 15.112 h -17.634 z m 142.032,15.112 h -17.635 v -15.112 h 17.635 z m -143.24,-42.033 h 17.635 v 15.112 h -17.635 z m 144.449,15.112 h -17.636 v -15.112 h 17.636 z M 364.689,242.563 h 17.635 v 15.111 h -17.635 z m 146.797,15.112 h -17.635 v -15.111 h 17.635 z M 393.623,376.347 h 17.636 v 15.113 h -17.636 z m 88.93,15.113 h -17.636 v -15.113 h 17.636 z m -87.834,-37.892 h 17.636 v 15.112 h -17.636 z m 86.738,15.112 h -17.636 v -15.112 h 17.636 z m -87.616,-45.489 h 17.635 v 15.112 h -17.635 z m 88.494,15.112 H 464.7 v -15.112 h 17.635 z M 391.58,288.066 h 17.636 v 15.113 H 391.58 Z m 93.016,15.114 H 466.96 v -15.113 h 17.636 z m -95.38,-49.284 h 17.636 v 15.111 h -17.636 z m 97.743,15.112 h -17.636 v -15.111 h 17.636 z m -99.491,-43.927 h 17.636 v 15.111 h -17.636 z m 101.24,15.111 h -17.636 v -15.111 h 17.636 z m -50.62,168.939 H 422.891 V 394.02 h 30.394 v 15.111 z m 0,-27.618 h -14.406 v -15.112 h 28.812 v 15.112 z m -17.9,-64.607 h 17.636 v 15.112 h -17.636 z m -5.022,-49.443 h 17.635 v 15.113 h -17.635 z m 45.844,30.353 h -17.635 v -15.113 h 17.635 z m -49.433,-64.202 h 17.635 v 15.113 h -17.635 z m 53.022,10.613 h -17.635 v -15.113 h 17.635 z m -54.79,-48.14 h 17.635 v 15.11 h -17.635 z m 56.558,15.11 h -17.635 v -15.11 h 17.635 z m -28.279,-3.821 h -4.947 v -15.113 h 9.894 v 15.113 z m 0,-37.109 h -5.542 v -15.113 h 11.084 v 15.113 z"
           style="fill:#ffffff;fill-opacity:1;fill-rule:nonzero;stroke:none"
           id="path1782"
           inkscape:connector-curvature="0" /></g></g></g></svg>
