<?xml version="1.0" encoding="UTF-8" standalone="no"?>
<!-- Created with Inkscape (http://www.inkscape.org/) -->

<svg
   xmlns:osb="http://www.openswatchbook.org/uri/2009/osb"
   xmlns:dc="http://purl.org/dc/elements/1.1/"
   xmlns:cc="http://creativecommons.org/ns#"
   xmlns:rdf="http://www.w3.org/1999/02/22-rdf-syntax-ns#"
   xmlns:svg="http://www.w3.org/2000/svg"
   xmlns="http://www.w3.org/2000/svg"
   xmlns:xlink="http://www.w3.org/1999/xlink"
   xmlns:sodipodi="http://sodipodi.sourceforge.net/DTD/sodipodi-0.dtd"
   xmlns:inkscape="http://www.inkscape.org/namespaces/inkscape"
   width="131.01004mm"
   height="114.78196mm"
   viewBox="0 0 131.01004 114.78196"
   version="1.1"
   id="svg8"
   inkscape:version="0.92.4 (5da689c313, 2019-01-14)"
   sodipodi:docname="color-red-cloud.svg"
   inkscape:export-filename="D:\work\project\upa\logo\color-bulut.png"
   inkscape:export-xdpi="96"
   inkscape:export-ydpi="96">
  <defs
     id="defs2">
    <linearGradient
       id="linearGradient2473"
       osb:paint="solid">
      <stop
         style="stop-color:#ffffff;stop-opacity:1;"
         offset="0"
         id="stop2471" />
    </linearGradient>
    <linearGradient
       inkscape:collect="always"
       id="linearGradient995">
      <stop
         style="stop-color:#ff4100;stop-opacity:1;"
         offset="0"
         id="stop991" />
      <stop
         style="stop-color:#ffcb00;stop-opacity:1"
         offset="1"
         id="stop993" />
    </linearGradient>
    <filter
       style="color-interpolation-filters:sRGB"
       id="filter8122"
       inkscape:label="filter0" />
    <radialGradient
       inkscape:collect="always"
       xlink:href="#linearGradient995"
       id="radialGradient997"
       cx="483.72623"
       cy="481.48898"
       fx="483.72623"
       fy="481.48898"
       r="62.292223"
       gradientTransform="matrix(0.54772695,-1.0593338,2.0117542,1.0401752,-745.28771,505.62678)"
       gradientUnits="userSpaceOnUse" />
    <linearGradient
       inkscape:collect="always"
       xlink:href="#linearGradient995"
       id="linearGradient1005"
       x1="323.06787"
       y1="473.19955"
       x2="411.51953"
       y2="519.54883"
       gradientUnits="userSpaceOnUse" />
    <linearGradient
       inkscape:collect="always"
       xlink:href="#linearGradient995"
       id="linearGradient1013"
       x1="106.62518"
       y1="95.896912"
       x2="112.26445"
       y2="121.39777"
       gradientUnits="userSpaceOnUse" />
    <linearGradient
       inkscape:collect="always"
       xlink:href="#linearGradient2473"
       id="linearGradient3179"
       gradientUnits="userSpaceOnUse"
       x1="46.495303"
       y1="103.42678"
       x2="84.414782"
       y2="103.42678"
       gradientTransform="matrix(0.92101023,0,0,0.92101024,6.4374173,7.0704796)" />
  </defs>
  <sodipodi:namedview
     id="base"
     pagecolor="#ffffff"
     bordercolor="#666666"
     borderopacity="1.0"
     inkscape:pageopacity="0.0"
     inkscape:pageshadow="2"
     inkscape:zoom="0.69109812"
     inkscape:cx="-66.627537"
     inkscape:cy="392.6537"
     inkscape:document-units="mm"
     inkscape:current-layer="layer18"
     showgrid="false"
     inkscape:window-width="1920"
     inkscape:window-height="1017"
     inkscape:window-x="1272"
     inkscape:window-y="-8"
     inkscape:window-maximized="1" />
  <metadata
     id="metadata5">
    <rdf:RDF>
      <cc:Work
         rdf:about="">
        <dc:format>image/svg+xml</dc:format>
        <dc:type
           rdf:resource="http://purl.org/dc/dcmitype/StillImage" />
        <dc:title></dc:title>
      </cc:Work>
    </rdf:RDF>
  </metadata>
  <g
     inkscape:groupmode="layer"
     id="layer18"
     inkscape:label="temp"
     style="display:inline"
     transform="translate(-36.968429,-16.703693)">
    <g
       id="g9177"
       transform="matrix(2.0495122,0,0,1.9837692,-125.07789,-155.75482)"
       inkscape:export-xdpi="96"
       inkscape:export-ydpi="96"
       style="fill:#4f91c3;fill-opacity:1">
      <path
         id="path9154"
         transform="scale(0.26458333)"
         d="M 351.26367,423.83594 A 58.513086,58.513086 0 0 0 310.32422,479.63086 58.513086,58.513086 0 0 0 326.5,519.91992 v -0.37109 h 85.01953 A 67.024398,67.024398 0 0 1 409,516.02734 a 67.024398,67.024398 0 0 1 -3.33203,-5.81054 67.024398,67.024398 0 0 1 -2.73828,-6.11524 67.024398,67.024398 0 0 1 -2.11133,-6.35742 67.024398,67.024398 0 0 1 -1.46875,-6.53711 67.024398,67.024398 0 0 1 -0.80664,-6.65039 67.024398,67.024398 0 0 1 -0.16797,-4.74219 67.024398,67.024398 0 0 1 0.33594,-6.6914 67.024398,67.024398 0 0 1 0.54297,-3.59961 67.0244,67.0244 0 0 1 -3.66407,-0.93555 67.0244,67.0244 0 0 1 -6.29296,-2.29687 67.0244,67.0244 0 0 1 -6.03321,-2.91407 67.0244,67.0244 0 0 1 -5.71289,-3.50195 67.0244,67.0244 0 0 1 -5.33203,-4.05469 67.0244,67.0244 0 0 1 -4.90234,-4.5664 67.0244,67.0244 0 0 1 -4.42188,-5.03321 67.0244,67.0244 0 0 1 -3.89648,-5.44922 67.0244,67.0244 0 0 1 -3.33399,-5.8125 67.0244,67.0244 0 0 1 -2.73633,-6.11523 67.0244,67.0244 0 0 1 -1.66406,-5.00781 z"
         style="display:inline;fill:url(#linearGradient1005);fill-opacity:1;fill-rule:nonzero;stroke:#e03a00;stroke-width:7.55905533;stroke-linecap:round;stroke-linejoin:round;stroke-miterlimit:4;stroke-dasharray:none;stroke-dashoffset:0;stroke-opacity:1;paint-order:normal"
         inkscape:connector-curvature="0" />
      <path
         id="circle9128"
         transform="scale(0.26458333)"
         d="m 470.42383,421.11719 a 58.51309,58.51309 0 0 0 -58.51367,58.51367 58.51309,58.51309 0 0 0 15.88281,40.02148 h 85.2168 a 58.51309,58.51309 0 0 0 15.92578,-40.02148 58.51309,58.51309 0 0 0 -58.51172,-58.51367 z"
         style="display:inline;fill:url(#radialGradient997);fill-opacity:1;fill-rule:nonzero;stroke:#e03a00;stroke-width:7.55905533;stroke-linecap:round;stroke-linejoin:round;stroke-miterlimit:4;stroke-dasharray:none;stroke-dashoffset:0;stroke-opacity:1;paint-order:normal"
         inkscape:connector-curvature="0" />
      <path
         inkscape:connector-curvature="0"
         id="circle9145"
         d="m 111.34669,90.650797 a 15.481588,15.481588 0 0 0 -15.481742,15.481743 15.481588,15.481588 0 0 0 10.208162,14.53555 19.97419,19.97419 0 0 1 18.98953,-13.8188 19.97419,19.97419 0 0 1 1.72548,0.0863 15.481588,15.481588 0 0 0 0.0398,-0.80305 15.481588,15.481588 0 0 0 -15.48122,-15.481743 z"
         style="display:inline;fill:url(#linearGradient1013);fill-opacity:1;fill-rule:nonzero;stroke:#e03a00;stroke-width:2;stroke-linecap:round;stroke-linejoin:round;stroke-miterlimit:4;stroke-dasharray:none;stroke-dashoffset:0;stroke-opacity:1;paint-order:normal" />
    </g>
    <rect
       style="fill:none;fill-opacity:1;fill-rule:nonzero;stroke:#e03a00;stroke-width:1.98017192;stroke-linecap:round;stroke-linejoin:round;stroke-miterlimit:4;stroke-dasharray:none;stroke-dashoffset:0;stroke-opacity:1;paint-order:normal"
       id="rect9300"
       width="101.75781"
       height="1.8647685"
       x="51.856033"
       y="123.25883"
       inkscape:export-xdpi="96"
       inkscape:export-ydpi="96" />
    <text
       xml:space="preserve"
       style="font-style:normal;font-weight:normal;font-size:15.59577274px;line-height:1.25;font-family:sans-serif;letter-spacing:0px;word-spacing:0px;fill:url(#linearGradient3179);fill-opacity:1;stroke:none;stroke-width:0.24368395"
       x="46.603657"
       y="109.19073"
       id="text939"
       transform="scale(1.0164352,0.98383058)"><tspan
         sodipodi:role="line"
         id="tspan937"
         x="46.603657"
         y="109.19073"
         style="font-style:normal;font-variant:normal;font-weight:normal;font-stretch:normal;font-size:23.39365959px;font-family:'Trebuchet MS';-inkscape-font-specification:'Trebuchet MS, Normal';font-variant-ligatures:normal;font-variant-caps:normal;font-variant-numeric:normal;font-feature-settings:normal;text-align:start;writing-mode:lr-tb;text-anchor:start;fill:url(#linearGradient3179);fill-opacity:1;stroke-width:0.24368395">UPA</tspan></text>
    <text
       id="text943"
       y="74.957062"
       x="78.248932"
       style="font-style:normal;font-weight:normal;font-size:15.59577274px;line-height:1.25;font-family:sans-serif;letter-spacing:0px;word-spacing:0px;fill:#ffffff;fill-opacity:1;stroke:none;stroke-width:0.24368395"
       xml:space="preserve"
       transform="scale(1.0164352,0.98383058)"><tspan
         style="font-style:normal;font-variant:normal;font-weight:normal;font-stretch:normal;font-size:15.59577274px;font-family:'Trebuchet MS';-inkscape-font-specification:'Trebuchet MS';fill:#ffffff;fill-opacity:1;stroke-width:0.24368395"
         y="74.957062"
         x="78.248932"
         id="tspan941"
         sodipodi:role="line">v4</tspan></text>
    <text
       xml:space="preserve"
       style="font-style:normal;font-weight:normal;font-size:23.39365959px;line-height:1.25;font-family:sans-serif;letter-spacing:0px;word-spacing:0px;display:inline;fill:#ffffff;fill-opacity:1;stroke:none;stroke-width:0.24368395"
       x="103.63789"
       y="111.30636"
       id="text927"
       transform="scale(1.0164352,0.98383058)"><tspan
         sodipodi:role="line"
         id="tspan925"
         x="103.63789"
         y="111.30636"
         style="font-style:normal;font-variant:normal;font-weight:normal;font-stretch:normal;font-size:23.39365959px;font-family:'Trebuchet MS';-inkscape-font-specification:'Trebuchet MS';fill:#ffffff;fill-opacity:1;stroke-width:0.24368395">C<tspan
   style="font-size:15.59577274px;stroke-width:0.24368395"
   id="tspan945">loud</tspan></tspan></text>
  </g>
</svg>
